<?xml version="1.0" standalone="no"?>
<!DOCTYPE svg PUBLIC "-//W3C//DTD SVG 20010904//EN"
 "http://www.w3.org/TR/2001/REC-SVG-20010904/DTD/svg10.dtd">
<svg version="1.0" xmlns="http://www.w3.org/2000/svg"
 width="260.000000pt" height="260.000000pt" viewBox="0 0 260.000000 260.000000"
 preserveAspectRatio="xMidYMid meet">
<metadata>
Created by potrace 1.14, written by Peter Selinger 2001-2017
</metadata>
<g transform="translate(0.000000,260.000000) scale(0.100000,-0.100000)"
fill="#000000" stroke="none">
<path d="M960 2584 c0 -9 -4 -12 -10 -9 -5 3 -7 0 -4 -8 3 -8 -2 -17 -11 -21
-9 -3 -13 -11 -10 -16 4 -6 1 -9 -7 -8 -7 2 -12 -3 -10 -11 2 -8 -3 -11 -12
-8 -10 4 -14 0 -11 -14 2 -11 0 -17 -6 -14 -5 4 -9 -1 -9 -10 0 -9 -5 -13 -10
-10 -6 4 -17 1 -25 -5 -11 -9 -12 -17 -4 -32 10 -18 9 -19 -13 -7 -21 11 -22
11 -9 -5 12 -15 12 -17 0 -14 -8 2 -13 -3 -11 -10 1 -8 -2 -11 -7 -7 -12 7
-33 -29 -23 -40 4 -5 3 -6 -3 -3 -5 3 -18 -3 -27 -14 -10 -10 -16 -18 -13 -18
3 0 0 -6 -7 -14 -9 -10 -15 -11 -20 -2 -5 7 -8 4 -8 -8 0 -11 -7 -26 -15 -35
-54 -58 -85 -95 -85 -103 0 -5 -4 -7 -8 -4 -5 3 -21 -15 -36 -39 -16 -24 -35
-46 -43 -49 -8 -3 -11 -10 -8 -16 5 -9 -7 -14 -26 -12 -4 1 -6 -6 -5 -16 0 -9
-5 -16 -12 -14 -8 1 -11 -2 -7 -8 3 -5 -1 -13 -9 -16 -9 -3 -14 -10 -11 -15 3
-4 -4 -13 -15 -19 -11 -6 -18 -15 -15 -21 4 -5 0 -9 -8 -9 -8 0 -20 -13 -26
-30 -10 -32 -24 -43 -15 -12 4 13 2 12 -7 -3 -7 -11 -15 -22 -19 -25 -3 -3
-10 -13 -13 -24 -4 -10 -13 -16 -22 -13 -10 4 -12 1 -8 -10 5 -12 3 -14 -7 -8
-9 6 -11 4 -5 -4 4 -8 -1 -18 -13 -26 -19 -14 -39 -61 -21 -49 5 3 20 -6 33
-20 13 -14 29 -26 35 -26 7 0 9 -4 6 -10 -3 -5 1 -10 9 -10 9 0 16 -5 16 -11
0 -5 4 -7 10 -4 5 3 10 -1 10 -9 0 -9 7 -16 16 -16 8 0 12 -4 9 -10 -3 -5 1
-10 9 -10 9 0 21 -9 28 -20 7 -11 21 -20 31 -20 13 0 17 -5 13 -16 -3 -8 -2
-13 2 -10 4 2 18 -9 31 -25 13 -16 29 -29 37 -29 8 0 14 -7 14 -16 0 -8 5 -12
10 -9 6 3 10 2 10 -3 0 -5 10 -12 21 -15 15 -4 20 -11 15 -22 -3 -9 -2 -13 4
-10 5 3 25 -10 45 -29 19 -19 35 -29 35 -23 0 7 10 -3 21 -20 12 -18 25 -33
31 -33 15 0 38 -27 30 -35 -4 -5 -2 -5 4 -2 6 4 25 -6 42 -22 17 -16 32 -27
35 -24 3 2 8 -5 12 -16 3 -12 13 -21 21 -21 8 0 14 -5 14 -11 0 -5 4 -7 10 -4
6 3 10 -1 10 -9 0 -9 7 -16 16 -16 8 0 12 -4 9 -10 -3 -5 1 -10 9 -10 8 0 20
-9 26 -20 6 -11 17 -20 25 -20 8 0 15 -7 15 -16 0 -8 4 -12 10 -9 5 3 10 1 10
-4 0 -6 7 -11 16 -11 8 0 12 -4 9 -10 -3 -5 0 -10 8 -10 7 0 23 -14 36 -31 19
-26 25 -28 39 -17 10 8 13 9 9 1 -4 -6 -2 -15 4 -19 7 -4 9 -3 5 4 -3 6 -2 13
4 17 6 4 7 11 4 17 -4 7 -2 8 4 4 8 -4 16 3 22 18 5 14 12 26 15 26 4 0 3 -5
-1 -12 -5 -7 -3 -8 5 -4 7 5 10 15 6 24 -3 9 -3 13 1 10 8 -8 34 14 27 24 -4
7 11 12 29 9 4 0 5 6 2 14 -4 9 0 15 9 15 11 0 15 7 12 21 -3 13 0 19 8 16 14
-5 39 18 30 27 -3 3 1 8 10 12 9 3 26 21 38 40 11 19 28 34 37 34 15 0 15 2 2
10 -13 8 -13 10 2 10 9 0 18 4 20 9 5 14 51 73 83 105 16 17 30 33 30 36 1 13
33 49 38 44 4 -4 10 2 13 12 11 29 35 54 47 47 6 -3 7 -1 3 5 -3 6 2 15 11 21
10 6 14 11 10 11 -5 0 8 16 28 35 20 20 33 40 29 47 -4 7 -3 8 4 4 7 -4 12 -1
12 9 0 9 5 13 10 10 9 -5 15 15 11 37 0 4 7 4 17 1 9 -3 13 -2 9 2 -4 5 3 15
15 23 14 8 16 11 5 8 -11 -3 -15 -2 -12 4 3 6 15 10 26 10 11 0 17 5 14 10 -3
6 -2 10 4 10 6 0 7 7 4 17 -4 10 -2 14 4 10 6 -4 16 0 23 8 7 8 15 13 19 10 4
-2 7 6 6 18 -1 12 -9 23 -18 25 -9 2 -19 11 -22 21 -3 10 -18 29 -33 42 -24
21 -25 21 -8 2 l18 -22 -25 12 c-14 6 -23 15 -21 19 3 4 -5 15 -17 25 -12 10
-30 25 -40 35 -9 9 -20 14 -23 11 -3 -4 -6 1 -6 11 0 10 -6 16 -17 14 -10 -2
-18 3 -19 10 -1 6 -2 16 -3 22 0 5 -4 9 -8 9 -5 -1 -15 -1 -23 0 -13 1 -13 2
0 12 12 9 11 10 -7 6 -12 -3 -21 -1 -20 3 1 4 -2 8 -8 8 -5 0 -12 10 -17 21
-4 12 -14 21 -23 21 -8 0 -15 5 -15 11 0 5 -4 7 -10 4 -6 -4 -7 1 -3 11 5 13
3 16 -10 11 -9 -3 -17 -2 -17 4 0 14 -47 59 -54 52 -3 -3 -8 2 -12 11 -3 9
-10 16 -15 16 -16 0 -48 33 -42 43 3 6 1 7 -5 3 -7 -4 -12 -2 -12 3 0 6 -5 11
-10 11 -6 0 -24 14 -40 30 -16 17 -34 30 -40 30 -6 0 -8 5 -5 10 3 6 0 10 -7
10 -8 0 -20 9 -28 19 -7 11 -17 18 -22 15 -4 -3 -8 2 -8 11 0 9 -3 14 -7 12
-11 -6 -43 30 -35 39 4 4 2 4 -5 0 -7 -4 -32 13 -60 41 -26 26 -43 41 -38 33
6 -9 1 -5 -11 8 -25 28 -94 40 -94 16z"/>
<path d="M1860 1039 c0 -7 -8 -18 -17 -25 -10 -7 -18 -18 -18 -26 -1 -7 -6
-12 -11 -11 -6 1 -10 -8 -9 -19 1 -12 -5 -30 -14 -39 -8 -10 -16 -26 -17 -36
-2 -10 -8 -19 -13 -21 -6 -2 -11 -9 -11 -16 0 -7 -9 -21 -20 -31 -11 -10 -19
-23 -17 -29 2 -6 -2 -17 -10 -24 -7 -8 -11 -17 -8 -22 3 -4 -2 -11 -11 -14 -8
-3 -12 -10 -9 -16 3 -5 1 -10 -5 -10 -6 0 -8 -5 -5 -10 3 -6 -1 -13 -9 -16 -9
-3 -16 -12 -16 -20 0 -7 -8 -18 -17 -23 -15 -9 -15 -12 -5 -19 11 -7 10 -10
-3 -16 -9 -3 -14 -10 -11 -15 3 -5 -1 -14 -9 -21 -8 -7 -13 -16 -10 -20 3 -4
-2 -11 -11 -14 -8 -3 -12 -11 -9 -16 4 -6 -2 -19 -14 -29 -11 -10 -18 -21 -14
-25 3 -3 1 -6 -6 -6 -7 0 -9 -4 -6 -10 3 -5 1 -10 -4 -10 -6 0 -11 -6 -11 -14
0 -8 -7 -22 -16 -30 -12 -12 -12 -16 -2 -16 7 0 1 -10 -14 -21 -16 -11 -28
-27 -28 -35 0 -8 -4 -14 -10 -14 -5 0 -7 -7 -4 -15 4 -8 2 -15 -4 -15 -5 0
-13 -11 -16 -25 -4 -17 -11 -23 -19 -19 -9 5 -9 4 0 -6 10 -11 7 -18 -13 -37
-14 -13 -22 -28 -19 -33 3 -6 0 -13 -9 -16 -8 -3 -17 -12 -20 -20 -4 -10 -1
-13 7 -9 6 4 3 -1 -7 -9 -11 -9 -17 -16 -13 -16 4 0 -2 -15 -13 -32 -11 -18
-20 -36 -20 -40 0 -5 264 -8 587 -8 585 0 586 0 568 20 -10 11 -14 20 -10 20
4 0 0 9 -10 20 -10 11 -14 20 -10 20 4 0 0 9 -9 19 -10 11 -15 25 -10 32 4 7
3 10 -3 6 -12 -8 -35 47 -25 58 4 3 -1 3 -11 -1 -13 -4 -17 -1 -17 15 0 12 -5
21 -11 21 -6 0 -9 6 -6 14 3 8 -1 17 -9 20 -8 3 -13 9 -12 13 1 4 -3 18 -10
31 -7 12 -9 22 -5 22 4 0 0 5 -10 11 -9 6 -15 14 -12 20 4 5 1 9 -4 9 -6 0
-11 7 -11 15 0 8 -4 15 -9 15 -5 0 -11 9 -14 21 -3 12 -10 18 -15 15 -6 -3 -8
2 -5 14 3 12 0 20 -6 20 -7 0 -10 4 -7 9 3 4 -2 18 -12 29 -9 11 -24 29 -33
39 -8 10 -14 24 -12 30 2 6 -3 18 -11 26 -9 9 -17 25 -19 37 -2 12 -9 25 -17
30 -7 4 -10 12 -6 18 3 6 0 14 -7 19 -16 9 -52 73 -49 86 1 4 -3 7 -8 7 -5 0
-10 6 -10 13 0 7 -9 23 -20 35 -11 12 -20 26 -20 32 0 13 -22 53 -34 61 -5 4
-6 11 -2 17 3 5 -1 13 -10 16 -8 3 -13 10 -10 15 3 4 -8 20 -24 35 -17 14 -30
21 -30 15z m33 -63 c4 -10 1 -13 -8 -9 -8 3 -12 9 -9 14 7 12 11 11 17 -5z"/>
</g>
</svg>
